<svg width="160" height="48" viewBox="0 0 160 48" fill="none" xmlns="http://www.w3.org/2000/svg">
<g clip-path="url(#clip0)">
<path d="M20.5563 16.3179C20.5563 18.8609 19.4967 20.7682 17.3775 22.2516C15.2583 23.7351 12.5033 24.5828 8.68874 24.5828H6.56954L5.08609 31.3642H0L4.87417 10.596H12.2914C13.5629 10.596 14.8344 10.596 15.6821 10.8079C16.7417 11.0198 17.5894 11.2318 18.2252 11.8675C19.0728 12.2914 19.7086 12.9271 20.1325 13.5629C20.3444 14.4106 20.5563 15.2583 20.5563 16.3179ZM14.8344 16.7417C14.8344 15.894 14.6225 15.2583 13.9868 15.0463C13.351 14.6225 12.5033 14.4106 11.4437 14.4106H9.3245L7.84106 20.5563H9.74834C11.4437 20.5563 12.7152 20.1324 13.5629 19.4967C14.4106 19.0728 14.8344 18.0132 14.8344 16.7417Z" fill="#0F4C8D"/>
<path d="M33.2714 20.5563H32.8476C32.6357 20.5563 32.2118 20.3444 31.9999 20.3444C31.5761 20.3444 31.1522 20.3444 30.7284 20.3444C30.0926 20.3444 29.4569 20.3444 28.8211 20.5563C28.1853 20.5563 27.5496 20.7682 26.9138 20.9801L24.5827 31.3642H19.2847L22.8873 15.6821H27.9734L27.5496 18.0133C28.3972 17.3775 29.4569 16.7417 30.3045 16.3179C31.1522 15.894 32.2118 15.6821 33.0595 15.6821C33.2714 15.6821 33.4833 15.6821 33.6953 15.6821C33.9072 15.6821 34.1191 15.6821 34.331 15.6821L33.2714 20.5563Z" fill="#0F4C8D"/>
<path d="M41.7483 15.6821L38.1457 31.3642H33.0596L36.6622 15.6821H41.7483Z" fill="#0F4C8D"/>
<path d="M58.9139 19.2847C58.9139 19.4967 58.9139 19.9205 58.9139 20.1324C58.9139 20.5563 58.9139 20.7682 58.702 21.192L56.3709 31.3642H51.2848L52.9801 23.5231C53.192 22.8874 53.192 22.4635 53.192 22.0397C53.192 21.6159 53.192 21.192 53.192 20.9801C53.192 20.3443 52.9801 19.9205 52.7682 19.7086C52.5563 19.4967 51.9205 19.2847 51.0728 19.2847C50.649 19.2847 50.2252 19.2847 49.5894 19.4967C49.1656 19.7086 48.5298 19.9205 47.894 20.3443L45.351 31.3642H40.2649L43.8675 15.6821H48.9536L48.7417 17.3775C49.8013 16.7417 50.649 16.1059 51.4967 15.6821C52.3444 15.2582 53.192 15.0463 54.2517 15.0463C55.7351 15.0463 56.7947 15.4702 57.4305 16.1059C58.4901 16.9536 58.9139 18.0132 58.9139 19.2847Z" fill="#0F4C8D"/>
<path d="M104.901 15.6821L101.298 31.1523H98.7549L99.1788 29.457C98.1192 30.0927 97.2715 30.7285 96.4238 30.9404C95.3642 31.5762 94.5165 31.7881 93.6688 31.7881C92.3973 31.7881 91.3377 31.3643 90.49 30.7285C89.6423 30.0927 89.4304 29.0331 89.4304 27.7616C89.4304 27.5497 89.4304 27.1258 89.4304 26.9139C89.4304 26.702 89.4304 26.2782 89.6423 25.8543L91.9735 15.6821H94.5165L92.3973 24.5828C92.3973 25.0066 92.1854 25.4305 92.1854 25.8543C92.1854 26.2782 91.9735 26.702 91.9735 26.9139C91.9735 27.7616 92.1854 28.3974 92.6092 28.6093C93.0331 29.0331 93.6688 29.245 94.7284 29.245C95.3642 29.245 96.2119 29.0331 97.0596 28.6093C97.9072 28.1854 98.7549 27.7616 99.6026 27.3378L102.358 15.6821H104.901Z" fill="#247ECA"/>
<path d="M118.464 19.2847C118.464 19.4967 118.464 19.7086 118.464 20.1324C118.464 20.5563 118.464 20.7682 118.252 21.192L115.921 31.3642H113.378L115.285 22.4635C115.497 22.0397 115.497 21.6159 115.497 21.192C115.497 20.7682 115.497 20.5563 115.497 20.1324C115.497 19.2847 115.285 18.8609 114.861 18.437C114.437 18.0132 113.801 17.8013 112.742 17.8013C112.106 17.8013 111.258 18.0132 110.411 18.437C109.775 18.649 108.927 19.0728 108.08 19.7086L105.325 31.3642H102.781L106.384 15.894H108.927L108.503 17.5894C109.563 16.9536 110.411 16.3178 111.258 15.894C112.106 15.4702 112.954 15.2582 114.013 15.2582C115.285 15.2582 116.344 15.6821 117.192 16.3178C118.04 16.9536 118.464 18.0132 118.464 19.2847Z" fill="#247ECA"/>
<path d="M132.874 19.2847C132.874 19.4967 132.874 19.7086 132.874 20.1324C132.874 20.5563 132.874 20.7682 132.662 21.192L130.331 31.3642H127.788L129.695 22.4635C129.695 22.0397 129.907 21.6159 129.907 21.192C129.907 20.7682 129.907 20.5563 129.907 20.1324C129.907 19.2847 129.695 18.8609 129.272 18.437C128.848 18.0132 128.212 17.8013 127.152 17.8013C126.517 17.8013 125.669 18.0132 124.821 18.437C123.974 18.8609 123.126 19.2847 122.278 19.9205L119.523 31.5761H116.98L120.795 15.6821H123.338L122.914 17.5894C123.974 16.9536 124.821 16.3178 125.669 15.894C126.517 15.4702 127.364 15.2582 128.424 15.2582C129.695 15.2582 130.755 15.6821 131.603 16.3178C132.45 16.9536 132.874 18.0132 132.874 19.2847Z" fill="#247ECA"/>
<path d="M159.364 18.4371C158.94 18.4371 158.516 18.2252 158.093 18.2252C157.881 18.2252 157.457 18.2252 157.033 18.2252C156.185 18.2252 155.338 18.4371 154.49 18.8609C153.642 19.2848 152.795 19.7086 151.947 20.3444L149.404 31.3642H146.861L150.463 15.894H153.007L152.583 18.2252C153.854 17.3775 154.914 16.7417 155.761 16.5298C156.609 16.106 157.457 16.106 158.305 16.106C158.728 16.106 159.152 16.106 159.364 16.106C159.576 16.106 159.788 16.106 160.212 16.3179L159.364 18.4371Z" fill="#247ECA"/>
<path d="M64.6359 31.5762C62.9405 31.5762 61.669 31.3643 61.0332 30.7286C60.3975 30.0928 59.9736 29.2451 59.9736 28.1855C59.9736 27.9736 59.9736 27.5498 59.9736 27.3378C59.9736 27.1259 60.1856 26.7021 60.1856 26.2782L61.8809 18.861H59.7617V18.0133L68.6624 11.2319L67.6028 15.6822H72.0531L71.2054 19.0729H66.5432L65.2716 24.5829C65.2716 25.0067 65.0597 25.4305 65.0597 25.8544C65.0597 26.2782 64.8478 26.4902 64.8478 26.914C64.8478 27.5498 65.0597 27.7617 65.2716 27.9736C65.4836 28.1855 66.1193 28.3974 66.7551 28.3974C66.967 28.3974 67.3909 28.3974 67.8147 28.1855C68.2385 28.1855 68.6624 27.9736 68.8743 27.7617H69.2981L68.4505 31.1524C67.8147 31.3643 67.3909 31.3643 66.7551 31.3643C66.1193 31.3643 65.4836 31.5762 64.6359 31.5762Z" fill="#0F4C8D"/>
<path d="M6.14575 3.39075C6.14575 3.39075 12.2914 0.847706 18.861 2.33115C25.4305 4.02651 39.2054 12.9272 39.2054 12.9272C39.2054 12.9272 45.3511 6.14572 52.7683 1.69539C53.616 1.27155 17.8014 -2.75494 6.14575 3.39075Z" fill="#247ECA"/>
<path d="M6.14575 4.2385C6.14575 4.2385 9.11264 2.96697 13.7749 2.75505C13.7749 2.75505 16.3179 2.54313 19.4967 3.39081C19.4967 3.39081 21.404 4.02658 23.3113 4.87426L22.4636 5.51002L6.14575 4.2385Z" fill="#0F4C8D"/>
<path d="M139.868 31.5761C137.748 31.5761 136.053 31.1523 134.782 30.0927C133.51 29.0331 132.874 27.5496 132.874 25.6424C132.874 22.6755 133.722 20.3443 135.629 18.2251C137.537 16.1059 139.656 15.0463 142.411 15.0463C144.106 15.0463 145.589 15.4702 146.437 16.3178C147.285 17.1655 147.921 18.4371 147.921 20.1324C147.921 20.3443 147.921 20.7682 147.709 21.4039C147.709 22.0397 147.497 22.6755 147.285 23.5231H135.841C135.841 23.7351 135.841 24.1589 135.629 24.3708C135.629 24.5827 135.629 24.7947 135.629 25.0066C135.629 26.2781 136.053 27.3377 136.901 28.1854C137.748 29.0331 138.808 29.245 140.291 29.245C141.351 29.245 142.411 29.0331 143.47 28.6092C144.53 28.1854 145.378 27.7616 146.225 27.3377H146.437C145.378 30.0927 143.258 30.9404 142.623 30.9404C141.987 31.1523 141.987 31.1523 141.563 31.1523C141.139 31.5761 140.503 31.5761 139.868 31.5761ZM145.166 21.8278C145.166 21.6159 145.166 21.4039 145.166 21.192C145.166 20.9801 145.166 20.7682 145.166 20.5563C145.166 19.4967 144.954 18.8609 144.318 18.2251C143.682 17.5894 142.835 17.3775 141.775 17.3775C140.503 17.3775 139.232 17.8013 138.172 18.649C137.113 19.4967 136.477 20.5563 136.053 21.8278H145.166Z" fill="#247ECA"/>
<path d="M89.4305 31.3643H86.4636C86.4636 31.3643 82.2252 25.0067 80.7417 22.8875C79.4702 21.404 77.1391 20.7683 77.1391 20.7683L74.596 31.3643H71.8411L76.7152 10.3842H82.4371C83.7086 10.3842 84.7682 10.3842 85.6159 10.5961C86.4636 10.808 87.0993 11.0199 87.7351 11.4438C88.159 11.8676 88.5828 12.2914 89.0066 12.9272C89.2186 13.563 89.4305 14.1987 89.4305 15.0464C89.4305 16.7418 88.7947 18.2252 87.7351 19.7087C86.6755 20.9802 85.1921 22.0398 83.4967 22.4636L89.4305 31.3643ZM86.2517 15.4702C86.2517 15.0464 86.2517 14.6226 86.0397 14.1987C85.8278 13.7749 85.6159 13.563 85.404 13.351C84.9801 13.1391 84.5563 12.9272 84.1325 12.7153C83.4967 12.7153 82.8609 12.7153 82.2252 12.7153H79.0464L77.1391 20.7683H80.106C80.9536 20.7683 81.8013 20.7683 82.4371 20.5563C83.0729 20.3444 83.7086 20.1325 84.3444 19.7087C84.9801 19.2848 85.404 18.6491 85.8278 18.0133C86.0397 17.1656 86.2517 16.3179 86.2517 15.4702Z" fill="#247ECA"/>
<path d="M160 29.2451C160 30.5166 159.152 31.3643 157.881 31.3643C156.609 31.3643 155.761 30.5166 155.761 29.2451C155.761 27.9735 156.821 27.1259 157.881 27.1259C159.152 27.1259 160 27.9735 160 29.2451ZM156.185 29.2451C156.185 30.0927 156.821 30.9404 157.881 30.9404C158.728 30.9404 159.576 30.0927 159.576 29.2451C159.576 28.3974 158.94 27.5497 157.881 27.5497C157.033 27.5497 156.185 28.1855 156.185 29.2451ZM157.669 30.3047H157.245V28.1855C157.457 28.1855 157.669 28.1855 158.093 28.1855C158.516 28.1855 158.728 28.1855 158.728 28.3974C158.94 28.3974 158.94 28.6093 158.94 28.8212C158.94 29.0331 158.728 29.2451 158.516 29.2451C158.728 29.2451 158.728 29.457 158.94 29.6689C158.94 30.0927 159.152 30.0927 159.152 30.0927H158.728C158.728 30.0927 158.728 29.8808 158.516 29.6689C158.516 29.457 158.305 29.2451 158.093 29.2451H157.881V30.3047H157.669ZM157.669 29.0331H157.881C158.093 29.0331 158.305 29.0331 158.305 28.8212C158.305 28.6093 158.093 28.3974 157.881 28.3974C157.669 28.3974 157.669 28.3974 157.669 28.3974V29.0331Z" fill="#247ECA"/>
<path d="M54.6755 39.2053C54.6755 40.053 54.4636 40.9007 54.2516 41.3245C53.8278 41.9603 53.404 42.3841 52.7682 42.596L54.4636 44.2914H52.9801L51.7086 42.808H51.4967C50.4371 42.808 49.8013 42.596 49.1656 41.9603C48.5298 41.3245 48.3179 40.4768 48.3179 39.4172C48.3179 38.3576 48.5298 37.5099 49.1656 36.8742C49.8013 36.2384 50.4371 36.0265 51.4967 36.0265C52.5563 36.0265 53.192 36.2384 53.8278 36.8742C54.2516 37.298 54.6755 38.1457 54.6755 39.2053ZM49.1656 39.2053C49.1656 40.053 49.3775 40.9007 49.8013 41.3245C50.2252 41.7483 50.8609 41.9603 51.4967 41.9603C52.3444 41.9603 52.7682 41.7483 53.192 41.3245C53.6159 40.9007 53.8278 40.053 53.8278 39.2053C53.8278 38.3576 53.6159 37.5099 53.192 37.0861C52.7682 36.6623 52.3444 36.4503 51.4967 36.4503C50.649 36.4503 50.2252 36.6623 49.8013 37.0861C49.3775 37.7219 49.1656 38.3576 49.1656 39.2053Z" fill="#247ECA"/>
<path d="M56.7947 37.5099V40.9006C56.7947 41.3245 56.7947 41.5364 57.0066 41.7483C57.2186 41.9602 57.4305 41.9602 57.8543 41.9602C58.4901 41.9602 58.702 41.7483 59.1258 41.5364C59.3378 41.3245 59.5497 40.6887 59.5497 40.0529V37.298H60.3974V42.3841H59.7616L59.5497 41.7483C59.3378 42.3841 59.1258 42.3841 58.702 42.596C58.4901 42.8079 58.0662 42.8079 57.6424 42.8079C57.0066 42.8079 56.5828 42.596 56.159 42.3841C55.947 42.1721 55.7351 41.5364 55.7351 40.9006V37.5099H56.7947Z" fill="#247ECA"/>
<path d="M65.0597 42.8079L64.8478 42.1721C64.6358 42.596 64.4239 42.8079 64.0001 42.8079C63.7882 43.0198 63.3643 43.0198 63.1524 43.0198C62.7286 43.0198 62.3047 42.8079 61.8809 42.596C61.669 42.3841 61.457 41.9602 61.457 41.5364C61.457 40.4768 62.3047 40.0529 64.0001 39.841H64.8478V39.6291C64.8478 39.2052 64.8478 38.9933 64.6358 38.7814C64.4239 38.5695 64.212 38.5695 63.7882 38.5695C63.3643 38.5695 62.9405 38.7814 62.3047 38.9933L62.0928 38.3576C62.3047 38.1456 62.5166 38.1456 62.9405 37.9337C63.1524 37.9337 63.5762 37.7218 63.7882 37.7218C64.4239 37.7218 64.8478 37.9337 65.0597 38.1456C65.2716 38.3576 65.4835 38.7814 65.4835 39.4172V42.8079H65.0597ZM63.3643 42.1721C63.7882 42.1721 64.212 41.9602 64.4239 41.7483C64.6358 41.5364 64.8478 41.1125 64.8478 40.6887V40.2649H64.0001C63.3643 40.2649 62.9405 40.4768 62.7286 40.4768C62.5166 40.6887 62.3047 40.9006 62.3047 41.3245C62.3047 41.5364 62.3047 41.7483 62.5166 41.9602C62.7286 42.1721 62.9405 42.1721 63.3643 42.1721Z" fill="#247ECA"/>
<path d="M68.0264 42.8079H67.1787V35.6026H68.0264V42.8079Z" fill="#247ECA"/>
<path d="M69.7219 36.2384C69.7219 36.0264 69.7219 36.0264 69.9338 35.8145C70.1458 35.6026 70.1458 35.6026 70.3577 35.6026C70.5696 35.6026 70.5696 35.6026 70.7815 35.8145C70.9934 36.0264 70.9934 36.0264 70.9934 36.2384C70.9934 36.4503 70.9934 36.4503 70.7815 36.6622C70.7815 36.6622 70.5696 36.8741 70.3577 36.8741C70.1458 36.8741 70.1458 36.8741 69.9338 36.6622C69.7219 36.4503 69.7219 36.4503 69.7219 36.2384ZM70.5696 42.8079H69.7219V37.7218H70.5696V42.8079Z" fill="#247ECA"/>
<path d="M73.9603 42.1722C74.1722 42.1722 74.1722 42.1722 74.3841 42.1722C74.596 42.1722 74.5961 42.1722 74.5961 42.1722V42.8079C74.5961 42.8079 74.3841 42.8079 74.1722 42.8079C73.9603 42.8079 73.9603 42.8079 73.7484 42.8079C72.6888 42.8079 72.2649 42.3841 72.2649 41.3245V38.1457H71.6292V37.7218L72.2649 37.298L72.6888 36.2384H73.1126V37.5099H74.5961V38.1457H73.1126V41.1126C73.1126 41.3245 73.1126 41.7483 73.3245 41.7483C73.3245 42.1722 73.5364 42.1722 73.9603 42.1722Z" fill="#247ECA"/>
<path d="M74.8079 37.5099H75.6555L76.7151 40.4768C76.9271 41.1125 77.139 41.5364 77.139 41.9602C77.139 41.7483 77.3509 41.5364 77.3509 41.1125C77.5628 40.6887 77.9867 39.6291 78.6224 37.5099H79.4701L77.3509 43.2317C77.139 43.8675 76.9271 44.2913 76.5032 44.5033C76.2913 44.7152 75.8675 44.9271 75.4436 44.9271C75.2317 44.9271 75.0198 44.9271 74.8079 44.9271V44.2913C75.0198 44.2913 75.2317 44.2913 75.4436 44.2913C75.8675 44.2913 76.2913 44.0794 76.5032 43.4437L76.7151 42.8079L74.8079 37.5099Z" fill="#247ECA"/>
<path d="M87.5231 37.9338C87.5231 38.5696 87.3112 39.2053 86.8873 39.6292C86.4635 40.053 85.8277 40.2649 84.7681 40.2649H83.9204V43.0199H83.0728V36.2384H84.7681C86.6754 35.8146 87.5231 36.6623 87.5231 37.9338ZM83.9204 39.4172H84.5562C85.192 39.4172 85.8277 39.2053 86.0396 38.9934C86.2515 38.7815 86.4635 38.3576 86.4635 37.9338C86.4635 37.5099 86.2515 37.0861 86.0396 36.8742C85.8277 36.6623 85.192 36.4503 84.5562 36.4503H83.7085V39.4172H83.9204Z" fill="#247ECA"/>
<path d="M91.1258 37.5099C91.3377 37.5099 91.5496 37.5099 91.7616 37.5099L91.5496 38.1456C91.3377 38.1456 91.1258 38.1456 90.9139 38.1456C90.49 38.1456 90.0662 38.3576 89.8543 38.5695C89.6424 38.7814 89.4304 39.4172 89.4304 39.841V42.596H88.5828V37.5099H89.2185V38.3576C89.4304 37.9337 89.6424 37.7218 89.8543 37.5099C90.4901 37.5099 90.702 37.5099 91.1258 37.5099Z" fill="#247ECA"/>
<path d="M92.6094 36.2384C92.6094 36.0264 92.6094 36.0264 92.8213 35.8145C93.0332 35.6026 93.0332 35.6026 93.2451 35.6026C93.4571 35.6026 93.4571 35.6026 93.669 35.8145C93.669 35.8145 93.8809 36.0264 93.8809 36.2384C93.8809 36.4503 93.8809 36.4503 93.669 36.6622C93.669 36.6622 93.4571 36.8741 93.2451 36.8741C93.0332 36.8741 93.0332 36.8741 92.8213 36.6622C92.6094 36.4503 92.6094 36.4503 92.6094 36.2384ZM93.457 42.8079H92.6094V37.7218H93.457V42.8079Z" fill="#247ECA"/>
<path d="M98.755 42.8079V39.4172C98.755 38.9933 98.755 38.7814 98.5431 38.5695C98.1192 38.3576 97.9073 38.1456 97.4835 38.1456C96.8477 38.1456 96.6358 38.3576 96.212 38.5695C96 38.7814 95.7881 39.4172 95.7881 40.0529V42.8079H94.9404V37.7218H95.5762L95.7881 38.3576C96 38.1456 96.212 37.9337 96.4239 37.7218C96.6358 37.5099 97.0596 37.5099 97.4835 37.5099C98.1192 37.5099 98.5431 37.7218 98.9669 37.9337C99.3908 38.1456 99.3908 38.7814 99.3908 39.4172V42.8079H98.755Z" fill="#247ECA"/>
<path d="M102.781 42.1722C102.993 42.1722 102.993 42.1722 103.205 42.1722C103.417 42.1722 103.417 42.1722 103.417 42.1722V42.8079C103.417 42.8079 103.205 42.8079 102.993 42.8079C102.781 42.8079 102.781 42.8079 102.569 42.8079C101.51 42.8079 101.086 42.3841 101.086 41.3245V38.1457H100.45V37.7218L101.086 37.298L101.51 36.2384H101.934V37.5099H103.417V38.1457H101.934V41.1126C101.934 41.3245 101.934 41.7483 102.146 41.7483C102.357 42.1722 102.569 42.1722 102.781 42.1722Z" fill="#247ECA"/>
<path d="M104.477 36.2384C104.477 36.0264 104.477 36.0264 104.689 35.8145C104.689 35.8145 104.901 35.6026 105.113 35.6026C105.324 35.6026 105.324 35.6026 105.536 35.8145C105.536 35.8145 105.748 36.0264 105.748 36.2384C105.748 36.4503 105.748 36.4503 105.536 36.6622C105.536 36.6622 105.324 36.8741 105.113 36.8741C104.901 36.8741 104.901 36.8741 104.689 36.6622C104.477 36.4503 104.477 36.4503 104.477 36.2384ZM105.324 42.8079H104.477V37.7218H105.324V42.8079Z" fill="#247ECA"/>
<path d="M110.411 42.8079V39.4172C110.411 38.9933 110.411 38.7814 110.199 38.5695C109.987 38.3576 109.775 38.3576 109.351 38.3576C108.715 38.3576 108.503 38.5695 108.079 38.7814C107.867 38.9933 107.656 39.6291 107.656 40.2649V43.0198H106.808V37.9337H107.444L107.656 38.5695C107.867 38.3576 108.079 38.1456 108.291 37.9337C108.503 37.7218 108.927 37.7218 109.351 37.7218C109.987 37.7218 110.411 37.9337 110.834 38.1456C111.258 38.3576 111.258 38.9933 111.258 39.6291V43.0198H110.411V42.8079Z" fill="#247ECA"/>
<path d="M116.98 37.5099V38.1456H116.132C116.132 38.3576 116.344 38.3576 116.344 38.5695C116.344 38.7814 116.344 38.9933 116.344 39.2053C116.344 39.6291 116.132 40.0529 115.921 40.4768C115.709 40.9006 115.073 40.9006 114.437 40.9006C114.225 40.9006 114.225 40.9006 114.013 40.9006C113.589 41.1125 113.589 41.3245 113.589 41.5364C113.589 41.7483 113.589 41.7483 113.801 41.7483C114.013 41.7483 114.013 41.7483 114.437 41.7483H115.285C115.921 41.7483 116.344 41.9602 116.556 42.1721C116.768 42.3841 116.98 42.8079 116.98 43.2317C116.98 43.8675 116.768 44.2913 116.344 44.5033C115.921 44.7152 115.285 44.9271 114.437 44.9271C113.801 44.9271 113.166 44.7152 112.954 44.5033C112.742 44.2913 112.318 44.0794 112.318 43.6556C112.318 43.4437 112.318 43.0198 112.53 42.8079C112.742 42.596 112.954 42.3841 113.377 42.3841C113.166 42.3841 113.166 42.1721 112.954 42.1721C112.742 42.1721 112.742 41.9602 112.742 41.7483C112.742 41.5364 112.742 41.3245 112.954 41.3245C112.954 41.1125 113.166 41.1125 113.377 40.9006C113.166 40.6887 112.954 40.6887 112.742 40.2649C112.53 40.0529 112.53 39.6291 112.53 39.4172C112.53 38.7814 112.742 38.3576 112.954 38.1456C113.377 37.9337 113.801 37.7218 114.437 37.7218C114.649 37.7218 114.861 37.7218 115.073 37.7218H116.98V37.5099ZM112.954 43.6556C112.954 43.8675 113.166 44.0794 113.377 44.2913C113.589 44.5033 114.013 44.5033 114.437 44.5033C115.073 44.5033 115.497 44.5033 115.921 44.2913C116.132 44.0794 116.344 43.8675 116.344 43.4437C116.344 43.2317 116.344 43.0198 116.132 42.8079C115.921 42.8079 115.709 42.596 115.073 42.596H114.225C113.801 42.596 113.589 42.596 113.377 42.8079C113.166 43.0198 112.954 43.2317 112.954 43.6556ZM113.377 39.2053C113.377 39.6291 113.377 39.841 113.589 40.0529C113.801 40.2649 114.225 40.2649 114.437 40.2649C115.285 40.2649 115.497 39.841 115.497 39.2053C115.497 38.3576 115.073 38.1456 114.437 38.1456C114.013 38.1456 113.801 38.1456 113.589 38.3576C113.377 38.5695 113.377 38.7814 113.377 39.2053Z" fill="#247ECA"/>
<path d="M122.914 38.1457H121.642V42.596H120.795V38.1457H119.947V37.7218L120.795 37.5099V37.298C120.795 36.0264 121.43 35.3907 122.49 35.3907C122.702 35.3907 123.126 35.3907 123.338 35.6026L123.126 36.2384C122.914 36.0264 122.702 36.0264 122.49 36.0264C122.278 36.0264 122.066 36.0264 121.854 36.2384C121.642 36.4503 121.642 36.6622 121.642 37.086V37.5099H122.914V38.1457Z" fill="#247ECA"/>
<path d="M128.424 40.2649C128.424 41.1125 128.212 41.7483 127.788 42.1721C127.364 42.596 126.728 42.8079 126.093 42.8079C125.669 42.8079 125.245 42.596 124.821 42.3841C124.397 42.1721 124.185 41.9602 123.973 41.5364C123.761 41.1125 123.761 40.6887 123.761 40.0529C123.761 39.2053 123.973 38.5695 124.397 38.1456C124.821 37.7218 125.457 37.5099 126.093 37.5099C126.728 37.5099 127.364 37.7218 127.788 38.1456C128.212 38.7814 128.424 39.4172 128.424 40.2649ZM124.397 40.2649C124.397 40.9006 124.609 41.3245 124.821 41.7483C125.033 42.1721 125.457 42.1721 125.881 42.1721C126.305 42.1721 126.728 41.9602 126.94 41.7483C127.152 41.3245 127.364 40.9006 127.364 40.2649C127.364 39.6291 127.152 39.2052 126.94 38.7814C126.728 38.3576 126.305 38.3576 125.881 38.3576C125.457 38.3576 125.033 38.5695 124.821 38.7814C124.609 38.9933 124.397 39.4172 124.397 40.2649Z" fill="#247ECA"/>
<path d="M132.026 37.5099C132.238 37.5099 132.45 37.5099 132.662 37.5099L132.45 38.1457C132.238 38.1457 132.026 38.1457 131.815 38.1457C131.391 38.1457 130.967 38.3576 130.755 38.5695C130.543 38.7814 130.331 39.4172 130.331 39.841V42.596H129.483V37.5099H130.119V38.3576C130.331 37.9337 130.543 37.7218 130.755 37.5099C130.967 37.298 131.815 37.5099 132.026 37.5099Z" fill="#247ECA"/>
<path d="M136.265 42.8079V36.0265H137.113V42.1722H140.079V42.8079H136.265Z" fill="#247ECA"/>
<path d="M143.47 42.8079C142.623 42.8079 142.199 42.596 141.775 42.1721C141.351 41.7483 141.139 41.1125 141.139 40.2649C141.139 39.4172 141.351 38.7814 141.775 38.3576C142.199 37.9337 142.623 37.7218 143.47 37.7218C144.106 37.7218 144.53 37.9337 144.954 38.3576C145.378 38.7814 145.59 39.4172 145.59 40.0529V40.2649H141.987C141.987 40.9006 142.199 41.3245 142.411 41.5364C142.623 41.7483 143.046 41.9602 143.682 41.9602C144.318 41.9602 144.742 41.7483 145.378 41.5364V42.3841C145.166 42.596 144.742 42.596 144.53 42.596C144.318 42.596 143.682 42.8079 143.47 42.8079ZM143.258 38.1456C142.835 38.1456 142.623 38.3576 142.199 38.5695C141.775 38.7814 141.775 39.2052 141.775 39.6291H144.53C144.53 39.2052 144.318 38.7814 144.106 38.5695C143.894 38.3576 143.47 38.1456 143.258 38.1456Z" fill="#247ECA"/>
<path d="M149.828 41.3245C149.828 41.7483 149.616 42.1721 149.192 42.3841C148.768 42.596 148.344 42.8079 147.709 42.8079C147.073 42.8079 146.437 42.596 146.225 42.3841V41.7483C146.437 41.9602 146.649 41.9602 147.073 41.9602C147.285 41.9602 147.709 42.1721 147.92 42.1721C148.344 42.1721 148.556 42.1721 148.768 41.9602C148.98 41.7483 149.192 41.5364 149.192 41.3245C149.192 41.1125 149.192 40.9006 148.98 40.9006C148.768 40.6887 148.556 40.6887 147.92 40.4768C147.497 40.2649 147.073 40.0529 146.861 40.0529C146.649 39.841 146.437 39.841 146.437 39.6291C146.437 39.4172 146.225 39.2053 146.225 38.9933C146.225 38.5695 146.437 38.1456 146.649 37.9337C147.073 37.7218 147.497 37.5099 148.132 37.5099C148.768 37.5099 149.192 37.7218 149.828 37.9337L149.616 38.5695C149.192 38.3576 148.556 38.3576 148.132 38.3576C147.709 38.3576 147.497 38.3576 147.285 38.5695C147.073 38.7814 147.073 38.7814 147.073 38.9933C147.073 39.2053 147.073 39.2053 147.073 39.4172C147.073 39.4172 147.285 39.6291 147.497 39.6291C147.709 39.6291 147.92 39.841 148.344 40.0529C148.98 40.2649 149.404 40.4768 149.616 40.6887C149.828 40.6887 149.828 40.9006 149.828 41.3245Z" fill="#247ECA"/>
<path d="M154.49 41.3245C154.49 41.7483 154.278 42.1721 153.854 42.3841C153.431 42.596 153.007 42.8079 152.371 42.8079C151.735 42.8079 151.099 42.596 150.887 42.3841V41.7483C151.099 41.9602 151.311 41.9602 151.735 41.9602C151.947 41.9602 152.371 42.1721 152.583 42.1721C153.007 42.1721 153.219 42.1721 153.431 41.9602C153.642 41.7483 153.854 41.5364 153.854 41.3245C153.854 41.1125 153.854 40.9006 153.642 40.9006C153.431 40.6887 153.219 40.6887 152.583 40.4768C152.159 40.2649 151.735 40.0529 151.523 40.0529C151.311 39.841 151.099 39.841 151.099 39.6291C151.099 39.4172 150.887 39.2053 150.887 38.9933C150.887 38.5695 151.099 38.1456 151.311 37.9337C151.735 37.7218 152.159 37.5099 152.795 37.5099C153.431 37.5099 153.854 37.7218 154.49 37.9337L154.278 38.5695C153.854 38.3576 153.219 38.3576 152.795 38.3576C152.371 38.3576 152.159 38.3576 151.947 38.5695C151.735 38.7814 151.735 38.7814 151.735 38.9933C151.735 39.2053 151.735 39.2053 151.735 39.4172C151.735 39.4172 151.947 39.6291 152.159 39.6291C152.371 39.6291 152.583 39.841 153.007 40.0529C153.642 40.2649 154.066 40.4768 154.278 40.6887C154.49 40.6887 154.49 40.9006 154.49 41.3245Z" fill="#247ECA"/>
</g>
<defs>
<clipPath id="clip0">
<path d="M0 0H160V48H0V0Z" fill="white"/>
</clipPath>
</defs>
</svg>
